<!-- Generator: Adobe Illustrator 25.0.0, SVG Export Plug-In  -->
<svg version="1.1" xmlns="http://www.w3.org/2000/svg" xmlns:xlink="http://www.w3.org/1999/xlink" x="0px" y="0px" width="153px"
	 height="22.11px" viewBox="0 0 153 22.11" style="overflow:visible;enable-background:new 0 0 153 22.11;" xml:space="preserve">
<style type="text/css">
	.st0{fill:#FFFFFF;}
	.st1{fill:#29ABE2;}
</style>
<defs>
</defs>
<g>
	<path class="st0" d="M8.73,11.38H4.2l-2.39,4.77H3.6l-0.04,0.42H0l0.04-0.42h1.19l7.6-14.99h2.65l2.17,14.99h1.3l-0.04,0.42h-6.9
		l0.04-0.42h1.19L8.73,11.38z M4.44,10.9h4.24L7.87,4.2L4.44,10.9z"/>
	<path class="st0" d="M22.08,14.57c0-1.22-0.99-1.5-2.48-2.06c-1.26-0.46-2.63-1.19-2.63-3.03c0-2.43,2.34-3.65,5.39-3.65
		c1.79,0,3.96,0.29,3.96,2.21c0,0.99-0.69,1.66-1.83,1.66c-0.77,0-1.5-0.4-1.5-1.06c0-0.38,0.09-0.73,0.33-1.04h0.71
		c0.09-0.2,0.13-0.38,0.13-0.53c0-0.51-0.49-0.77-1.48-0.77c-1.66,0-2.34,0.71-2.34,1.48c0,1.08,0.77,1.39,2.23,1.97
		c1.48,0.57,3.12,1.15,3.12,3.01c0,2.7-2.5,4.05-5.79,4.05c-2.48,0-4.13-0.77-4.13-2.41c0-1.22,0.8-1.83,1.9-1.83
		c0.95,0,1.46,0.6,1.46,1.37c0,0.29-0.07,0.6-0.2,0.91h-0.88c-0.07,0.15-0.09,0.29-0.09,0.42c0,0.57,0.53,1.06,1.77,1.06
		C21.64,16.31,22.08,15.3,22.08,14.57z"/>
	<path class="st0" d="M37.36,8.33c0,2.17-2.37,2.81-4.42,3.09c-0.71,0.09-1.26,0.11-1.72,0.11C30.9,14.66,31.52,16,33.07,16
		c1.08,0,2.28-0.77,3.05-3.18l0.44,0.13c-0.82,2.72-2.43,3.85-5.08,3.85c-2.81,0-4.47-1.5-4.47-4.11c0-4.53,2.74-6.85,6.65-6.85
		C36.16,5.84,37.36,6.7,37.36,8.33z M33.47,6.26c-1.19,0-1.88,2.19-2.21,4.86c1.5-0.07,2.87-0.8,2.87-3.51
		C34.13,6.79,34,6.26,33.47,6.26z"/>
	<path class="st0" d="M39.92,20.2c-0.2,0.91,0.24,1.39,1.24,1.39c1.7,0,2.63-1.19,3.58-5.04c0.13-0.57,0.22-0.91,0.38-1.64
		l-0.09-0.04c-0.55,0.99-1.48,1.92-3.4,1.92c-2.28,0-3.49-1.24-3.49-3.78c0-3.34,1.28-7.18,5.31-7.18c1.66,0,2.28,0.93,2.59,1.61
		l0.31-1.3c1.04,0.02,3.18-0.02,4.05-0.2c-0.46,2.25-0.75,3.4-1.64,9.22c-0.71,4.69-3.54,6.94-7.52,6.94
		c-1.95,0-3.93-0.77-3.93-2.56c0-1.41,0.95-2.17,2.06-2.17c1.11,0,2.12,0.64,1.83,2.45L39.92,20.2z M44.94,13.64
		c0.49-1.39,0.82-3.18,0.82-4.73c0-1.44-0.49-2.32-1.26-2.32c-0.75,0-1.26,0.8-1.66,2.25c-0.46,1.7-0.8,3.6-0.8,5.46
		c0,0.82,0.18,1.64,0.99,1.64C43.7,15.94,44.38,15.25,44.94,13.64z"/>
	<path class="st0" d="M53.27,6.45h-1.5l0.07-0.4h5.66c-0.95,4.13-1.5,6.63-1.75,8.22c-0.09,0.55-0.22,1.28,0.53,1.28
		c0.97,0,2.1-2.28,2.7-5.48c0.24-1.26,0.49-2.83,0.49-3.8c0.69,0.02,3.8-0.13,4.42-0.27c-0.55,2.67-1.33,6.52-1.57,8.53
		c-0.09,0.73-0.18,1.41,0.51,1.41c0.4,0,0.86-0.33,1.46-1.24l0.35,0.27c-0.91,1.39-1.88,1.81-3.18,1.81c-2.48,0-3.29-1.26-2.54-3.78
		l-0.13-0.04c-0.8,2.14-1.9,3.82-4.44,3.82c-2.1,0-2.79-1.46-2.43-3.36C52.25,11.56,52.98,7.8,53.27,6.45z"/>
	<path class="st0" d="M66.29,12.22l0.8-5.77h-1.5l0.07-0.4h5.46l-0.95,4.16l0.11,0.02c0.64-1.7,2.23-4.4,4.71-4.4
		c0.97,0,2.06,0.49,2.06,1.97c0,1.46-0.95,2.12-2.1,2.14c-0.49,0-1.02-0.11-1.53-0.38l-0.13-1.83c-1.19,0.04-2.37,1.66-2.92,4.07
		c-0.46,2.03-0.57,3.4-0.62,4.66c-0.93-0.04-3.32,0.13-4.44,0.29L66.29,12.22z"/>
	<path class="st0" d="M90.07,14.92c-0.8,1.3-1.75,1.88-2.96,1.88c-2.19,0-3.01-1.11-2.65-2.9l-0.11-0.02
		c-0.6,1.72-1.72,2.92-3.65,2.92c-2.56,0-3.56-1.48-3.56-3.85c0-4.07,1.86-7.12,5.44-7.12c1.64,0,2.14,0.62,2.48,1.46l0.31-1.17
		c1.06,0.02,3.18,0,4.05-0.18c-0.55,2.72-1.13,5.28-1.61,8.49c-0.04,0.29-0.09,0.6-0.09,0.8c0,0.57,0.27,0.71,0.57,0.71
		c0.33,0,0.82-0.22,1.46-1.22L90.07,14.92z M84.02,13.42c0.49-1.55,0.77-3.38,0.77-5.15c0-1.33-0.62-1.83-1.24-1.83
		c-0.66,0-1.13,0.62-1.57,2.17c-0.49,1.7-0.88,4.13-0.88,5.73c0,0.75,0.09,1.61,0.95,1.61C82.73,15.94,83.49,15.16,84.02,13.42z"/>
	<path class="st0" d="M102.47,8.82c-0.38,2.1-0.73,3.93-1.02,5.61c-0.04,0.29-0.09,0.6-0.09,0.8c0,0.57,0.27,0.71,0.57,0.71
		c0.33,0,0.82-0.22,1.46-1.22l0.33,0.2c-0.8,1.3-1.79,1.88-3.01,1.88c-2.19,0-3.01-1.11-2.65-2.9l-0.11-0.02
		c-0.6,1.72-1.72,2.92-3.65,2.92c-2.56,0-3.56-1.48-3.56-3.85c0-4.07,1.86-7.12,5.44-7.12c1.57,0,2.17,0.71,2.54,1.7l1.08-7.14
		h-1.44L98.45,0h5.61L102.47,8.82z M97.63,13.42c0.49-1.55,0.77-3.38,0.77-5.15c0-1.33-0.62-1.83-1.24-1.83
		c-0.66,0-1.13,0.62-1.57,2.17c-0.49,1.7-0.88,4.13-0.88,5.73c0,0.75,0.09,1.61,0.95,1.61C96.35,15.94,97.1,15.16,97.63,13.42z"/>
	<path class="st0" d="M104.39,12.64c0-3.96,2.25-6.81,6.5-6.81c2.94,0,4.53,1.19,4.53,3.98c0,4.64-2.63,6.99-6.48,6.99
		C105.9,16.8,104.39,15.39,104.39,12.64z M111.69,7.78c0-0.99-0.27-1.55-0.91-1.55c-1.37,0-1.75,1.7-2.34,5.24
		c-0.24,1.41-0.35,2.68-0.35,3.45c0,1.02,0.27,1.48,0.99,1.48c1.24,0,1.57-1.22,2.25-5.31C111.56,9.73,111.69,8.62,111.69,7.78z"/>
	<path class="st0" d="M122.37,14.57c0-1.22-0.99-1.5-2.48-2.06c-1.26-0.46-2.63-1.19-2.63-3.03c0-2.43,2.34-3.65,5.39-3.65
		c1.79,0,3.96,0.29,3.96,2.21c0,0.99-0.69,1.66-1.83,1.66c-0.77,0-1.5-0.4-1.5-1.06c0-0.38,0.09-0.73,0.33-1.04h0.71
		c0.09-0.2,0.13-0.38,0.13-0.53c0-0.51-0.49-0.77-1.48-0.77c-1.66,0-2.34,0.71-2.34,1.48c0,1.08,0.77,1.39,2.23,1.97
		c1.48,0.57,3.12,1.15,3.12,3.01c0,2.7-2.5,4.05-5.79,4.05c-2.48,0-4.13-0.77-4.13-2.41c0-1.22,0.8-1.83,1.9-1.83
		c0.95,0,1.46,0.6,1.46,1.37c0,0.29-0.07,0.6-0.2,0.91h-0.88c-0.07,0.15-0.09,0.29-0.09,0.42c0,0.57,0.53,1.06,1.77,1.06
		C121.92,16.31,122.37,15.3,122.37,14.57z"/>
	<path class="st1" d="M131.69,14.48c0,1.44-0.91,2.32-2.25,2.32c-1.26,0-1.66-0.86-1.66-1.64c0-1.33,1.11-2.17,2.23-2.17
		C131.03,13,131.69,13.53,131.69,14.48z"/>
	<path class="st1" d="M138.13,14.88c-0.2,0.78-0.69,1.8-2.19,1.8c-1.43,0-2.15-0.71-2.15-1.97c0-1.87,1.15-3.09,3.15-3.09
		c1.12,0,1.57,0.56,1.57,1.15c0,0.55-0.3,1.07-0.98,1.07c-0.55,0-0.71-0.34-0.71-0.64c0-0.17,0.07-0.37,0.15-0.54h0.43
		c0.08-0.19,0.11-0.35,0.11-0.47c0-0.32-0.22-0.39-0.43-0.39c-0.65,0-0.98,0.77-1.15,1.71c-0.09,0.51-0.17,1.05-0.17,1.62
		c0,0.85,0.26,1.18,0.81,1.18c0.46,0,1.07-0.4,1.37-1.49L138.13,14.88z"/>
	<path class="st1" d="M138.75,14.76c0-1.83,1.04-3.14,3-3.14c1.36,0,2.09,0.55,2.09,1.84c0,2.14-1.21,3.23-2.99,3.23
		C139.44,16.68,138.75,16.03,138.75,14.76z M142.12,12.52c0-0.46-0.12-0.71-0.42-0.71c-0.63,0-0.81,0.79-1.08,2.42
		c-0.11,0.65-0.16,1.24-0.16,1.59c0,0.47,0.12,0.68,0.46,0.68c0.57,0,0.72-0.56,1.04-2.45C142.05,13.41,142.12,12.9,142.12,12.52z"
		/>
	<path class="st1" d="M148.04,13.06c0.17-0.66,0.19-0.92-0.09-0.92c-0.22,0-0.56,0.24-0.95,1.06c-0.37,0.78-0.57,1.69-0.68,3.35
		c-0.32-0.01-1.75,0.04-2.03,0.1l0.43-1.9l0.42-2.85h-0.7l0.02-0.18h2.58l-0.4,1.69l0.03,0.01c0.46-1.01,0.94-1.81,2.11-1.81
		c0.66,0,0.93,0.34,0.93,0.84c0,0.22-0.06,0.48-0.15,0.76l0.04,0.01c0.29-0.62,0.78-1.6,1.98-1.6c0.68,0,1.05,0.39,1.06,0.96
		c0,0.33-0.05,0.62-0.11,0.88l-0.48,1.92c-0.06,0.26-0.12,0.53-0.12,0.64c0,0.2,0.12,0.25,0.27,0.25c0.15,0,0.39-0.16,0.64-0.59
		l0.17,0.1c-0.39,0.61-0.77,0.91-1.51,0.91c-0.78,0-1.34-0.33-1.34-1.19c0-0.67,0.52-2.23,0.6-2.43c0.17-0.48,0.35-0.92-0.02-0.92
		c-0.22,0-0.52,0.32-0.83,0.91c-0.44,0.85-0.67,2.02-0.84,3.5c-0.3-0.01-1.68,0.04-1.94,0.1C147.39,15.44,147.71,14.33,148.04,13.06
		z"/>
</g>
</svg>
